PathFileType	4	(X/Y/Z)	./resultDataOpenSim/trcMotMarkerGrf/sub10/qtm-02-03.trc
DataRate	CameraRate	NumFrames	NumMarkers	Units	OrigDataRate	OrigDataStartFrame	OrigNumFrames
250.000000	250.000000	8	24	m	250.000000	60	477
Frame#	Time	L.Toe.Tip			R.Toe.Tip			L.Ankle.Lat			R.Ankle.Lat			L.Ankle.Med			R.Ankle.Med			L.Heel			R.Heel			L.Knee.Lat			R.Knee.Lat			L.Knee.Med			R.Knee.Med			L.Thigh.Upper			R.Thigh.Upper			L.ASIS			R.ASIS			V.Sacral			L.Acromium			R.Acromium			C7			L.Elbow			R.Elbow			L.Wrist.Lat			R.Wrist.Lat
		X1	Y1	Z1	X2	Y2	Z2	X3	Y3	Z3	X4	Y4	Z4	X5	Y5	Z5	X6	Y6	Z6	X7	Y7	Z7	X8	Y8	Z8	X9	Y9	Z9	X10	Y10	Z10	X11	Y11	Z11	X12	Y12	Z12	X13	Y13	Z13	X14	Y14	Z14	X15	Y15	Z15	X16	Y16	Z16	X17	Y17	Z17	X18	Y18	Z18	X19	Y19	Z19	X20	Y20	Z20	X21	Y21	Z21	X22	Y22	Z22	X23	Y23	Z23	X24	Y24	Z24

60	0.236	-1.4449428	0.04752909	-0.14291412	-0.72376908	0.041344788	0.046279716	-1.453308	0.17982831	-0.18182209	-0.86516786	0.054309358	0.076171948	-1.4296719	0.17707963	-0.1014798	-0.84595501	0.080530222	-0.0060755324	-1.5025246	0.22599518	-0.13729484	-0.9134197	0.028953302	0.024955916	-1.142023	0.40675155	-0.19130027	-0.87165879	0.45102045	0.10525107	-1.1333245	0.36980601	-0.075209772	-0.86990663	0.46083012	-0.021508599	-1.0522849	0.77533566	-0.22466414	-1.009883	0.85127826	0.15342324	-0.98524041	0.88901495	-0.17219655	-0.96116639	0.93021009	0.067449707	-1.165979	0.91757262	-0.035396239	-1.0307098	1.3908083	-0.19808815	-1.084836	1.3678727	0.1189307	-1.1354261	1.4021999	-0.053200021	-1.0577974	1.0392034	-0.24951792	-1.2419667	1.0640156	0.12817927	-0.835365	0.93942404	-0.19154681	-1.2200224	0.83739174	0.21086394
61	0.24	-1.4415605	0.049155996	-0.14260702	-0.72344487	0.041060187	0.046033208	-1.4432897	0.18292888	-0.18151705	-0.86480788	0.054306084	0.075903318	-1.4196179	0.17905191	-0.10119944	-0.84565033	0.080273487	-0.0064175976	-1.4897715	0.23089205	-0.13634449	-0.91330753	0.028997497	0.024883245	-1.130603	0.40601096	-0.19081627	-0.86872881	0.45103472	0.10577491	-1.1213546	0.36810154	-0.074828453	-0.86534108	0.46052726	-0.021309584	-1.0437357	0.77477332	-0.22356766	-1.0032319	0.85233536	0.1542665	-0.97759327	0.88937562	-0.17042338	-0.95474505	0.93099869	0.068219361	-1.1584648	0.9178628	-0.034891712	-1.0244867	1.3913446	-0.19706383	-1.0788557	1.368379	0.11988625	-1.1296446	1.4024727	-0.052341626	-1.0529184	1.0400007	-0.24941438	-1.235131	1.0642437	0.12959524	-0.83074486	0.93882014	-0.19177648	-1.2128239	0.83754585	0.21219157
62	0.244	-1.437632	0.050906565	-0.14241263	-0.72315332	0.040800595	0.045966993	-1.4330435	0.18592344	-0.18116634	-0.86456772	0.054259456	0.075639405	-1.4092438	0.18103126	-0.10086778	-0.84531203	0.080040864	-0.0067061891	-1.4766302	0.23544535	-0.1356043	-0.91322001	0.029028978	0.024802428	-1.1191168	0.40531955	-0.19031204	-0.86580877	0.4510809	0.10625919	-1.1093748	0.36660685	-0.074379138	-0.86100443	0.46014536	-0.021141498	-1.0353317	0.77438911	-0.22258054	-0.99663243	0.85328891	0.15511772	-0.96998015	0.88977674	-0.16872774	-0.94836485	0.93172717	0.068981269	-1.1510972	0.91819328	-0.03433385	-1.0182964	1.3918609	-0.19612722	-1.0727834	1.3688673	0.12083792	-1.1238845	1.4027745	-0.051505901	-1.0480444	1.0407623	-0.24927716	-1.2282469	1.0644573	0.13105312	-0.82589461	0.93818346	-0.19201646	-1.2054611	0.83767749	0.21350537
63	0.248	-1.4327658	0.052891414	-0.1424346	-0.72289271	0.040569698	0.045951181	-1.4225708	0.18874215	-0.18074349	-0.86448102	0.054141409	0.07538134	-1.3985651	0.18300697	-0.10045846	-0.84497878	0.079834191	-0.0069512003	-1.4633147	0.23954957	-0.13513841	-0.91316388	0.029049703	0.02473032	-1.1075741	0.40467892	-0.18979372	-0.86258489	0.45102891	0.10658388	-1.0973629	0.36540214	-0.073844962	-0.8569274	0.45975933	-0.020968706	-1.0270326	0.77421294	-0.22169718	-0.99002546	0.85414462	0.15598524	-0.9626381	0.89013709	-0.16731146	-0.94199696	0.93240385	0.069742567	-1.1438915	0.91857812	-0.03370492	-1.0122008	1.3923714	-0.19530291	-1.0665943	1.3693378	0.12177563	-1.1181175	1.403143	-0.050672924	-1.0431757	1.0414982	-0.24908043	-1.2213012	1.0646568	0.13256004	-0.82109848	0.93752453	-0.19233614	-1.1980667	0.83776055	0.21474637
64	0.252	-1.4267803	0.055123125	-0.1426147	-0.72267145	0.040375494	0.045882443	-1.4119009	0.19138179	-0.18024452	-0.86451374	0.053959079	0.075132063	-1.3877064	0.18495662	-0.099940902	-0.8447065	0.079662345	-0.0071678042	-1.4502331	0.24317456	-0.13474077	-0.91314218	0.029062118	0.024681735	-1.0959376	0.40410724	-0.18926352	-0.85912109	0.45088666	0.10677519	-1.0853091	0.36453742	-0.073205829	-0.85303019	0.45940202	-0.020785982	-1.0188099	0.77425872	-0.22090195	-0.98342903	0.85491638	0.15685428	-0.95561443	0.89045261	-0.16620228	-0.93563623	0.93303662	0.07050171	-1.1368647	0.91902784	-0.033004751	-1.0061576	1.3928813	-0.1945888	-1.0602608	1.3697985	0.12268666	-1.1123227	1.4036133	-0.049831466	-1.0383177	1.0422122	-0.24882337	-1.2142819	1.0648431	0.13412084	-0.81657043	0.93681232	-0.19278615	-1.1907012	0.83777933	0.21588785
65	0.256	-1.4195862	0.057533733	-0.14281182	-0.72248834	0.040219078	0.045751083	-1.4011115	0.19389207	-0.17966874	-0.8645514	0.053768704	0.074902734	-1.376791	0.18687847	-0.099309709	-0.84450358	0.079529333	-0.0073672974	-1.437772	0.24636264	-0.13412709	-0.91314708	0.029069814	0.024656226	-1.0841517	0.40362637	-0.18871624	-0.85558669	0.45075196	0.10696472	-1.0732588	0.36402338	-0.072441562	-0.84927185	0.4590692	-0.020608835	-1.0107055	0.77452379	-0.22017228	-0.97697697	0.85562078	0.15768477	-0.94882891	0.89076898	-0.16532442	-0.92927177	0.93363491	0.071256258	-1.130079	0.91955379	-0.032285035	-1.0001012	1.3933954	-0.19396616	-1.0537799	1.3702675	0.12356114	-1.1064874	1.4042066	-0.04898551	-1.0334736	1.0429119	-0.24851305	-1.207185	1.0650197	0.13573448	-0.81227132	0.93602514	-0.19335223	-1.1833207	0.83774755	0.2169498
66	0.26	-1.4110443	0.060021682	-0.14291702	-0.72232435	0.040088957	0.045609109	-1.3902799	0.19633616	-0.17899975	-0.86451029	0.053637229	0.074716931	-1.3658629	0.18880031	-0.098579277	-0.844324	0.07942855	-0.0075513431	-1.4260746	0.24917676	-0.13318459	-0.91316327	0.029077093	0.024641852	-1.0722189	0.4032495	-0.18814039	-0.85200308	0.4507177	0.10727537	-1.0612621	0.3638489	-0.071552962	-0.84565589	0.45876072	-0.020439311	-1.0027841	0.77498917	-0.21948162	-0.97081591	0.85626384	0.15844539	-0.94217951	0.89114798	-0.16459081	-0.92286621	0.93420475	0.072007003	-1.123701	0.92017843	-0.031672891	-0.99400527	1.3939223	-0.1934143	-1.0471813	1.3707648	0.1243953	-1.100602	1.4049346	-0.04814105	-1.0286421	1.0436101	-0.24815619	-1.2000121	1.0651912	0.13739483	-0.80803297	0.93517074	-0.19398932	-1.1758419	0.83769433	0.21797138
67	0.264	-1.4010124	0.062480545	-0.14288199	-0.72215558	0.039968538	0.045498846	-1.3794266	0.19873805	-0.17821911	-0.8644184	0.053592283	0.074595843	-1.3549401	0.19075682	-0.097760626	-0.8441128	0.079349906	-0.0077154071	-1.4150509	0.25165631	-0.13198208	-0.91317772	0.029087796	0.024628219	-1.0602315	0.40298468	-0.18752866	-0.84833767	0.45080353	0.10771674	-1.0492509	0.36401453	-0.07060116	-0.84216844	0.45848673	-0.020270234	-0.99507501	0.77562374	-0.21881549	-0.96498848	0.85683662	0.15913817	-0.93556804	0.89166706	-0.1639081	-0.91637382	0.93474975	0.072757316	-1.117983	0.92093637	-0.031336486	-0.98787413	1.3944685	-0.19291644	-1.0405054	1.3713026	0.12518728	-1.094658	1.4058026	-0.047297613	-1.0238204	1.0443134	-0.24775821	-1.1927623	1.0653633	0.13909408	-0.80376525	0.93426559	-0.1946752	-1.1681791	0.83763962	0.21899189
